<?xml version="1.0" encoding="utf-8" ?>
<svg baseProfile="full" height="300mm" version="1.1" viewBox="0,0,200,300" width="200mm" xmlns="http://www.w3.org/2000/svg" xmlns:ev="http://www.w3.org/2001/xml-events" xmlns:xlink="http://www.w3.org/1999/xlink"><defs /><rect fill="#222222" height="300" width="200" x="0" y="0" /><text fill="#FFFFFF" style="font-size:12px; font-family:Arial; font-weight:bold;" x="10" y="20">Over 10km Runs</text><text fill="#FFFFFF" style="font-size:4px; font-family:Arial" x="10" y="280">ATHLETE</text><text fill="#FFFFFF" style="font-size:9px; font-family:Arial" x="10" y="290">cuijianzhuang</text><text fill="#FFFFFF" style="font-size:4px; font-family:Arial" x="65" y="280">SPECIAL TRACKS</text><rect fill="yellow" height="2.6" width="2.6" x="65" y="283" /><text fill="#FFFFFF" style="font-size:3px; font-family:Arial" x="70" y="285.5">Over 20.0 km</text><rect fill="red" height="2.6" width="2.6" x="65" y="287" /><text fill="#FFFFFF" style="font-size:3px; font-family:Arial" x="70" y="289.5">Over 40.0 km</text><text fill="#FFFFFF" style="font-size:4px; font-family:Arial" x="120" y="280">STATISTICS</text><text fill="#FFFFFF" style="font-size:3px; font-family:Arial" x="120" y="285">Number: 1</text><text fill="#FFFFFF" style="font-size:3px; font-family:Arial" x="120" y="290">Weekly: 1.0</text><text fill="#FFFFFF" style="font-size:3px; font-family:Arial" x="141" y="285">Total: 10.5 km</text><text fill="#FFFFFF" style="font-size:3px; font-family:Arial" x="141" y="290">Avg: 10.5 km</text><text fill="#FFFFFF" style="font-size:3px; font-family:Arial" x="167" y="285">Min: 10.5 km</text><text fill="#FFFFFF" style="font-size:3px; font-family:Arial" x="167" y="290">Max: 10.5 km</text><polyline fill="none" points="22.7955715758726,177.49405673117144 24.213697219500318,177.275866601296 24.213697219500318,175.31214965434629 24.213697219500318,173.78480706192204 24.08856848627329,171.65742653884809 23.629763131029904,169.9664230577473 23.796601441688836,168.16631410407717 23.796601441688836,164.89336634555366 23.754891864024103,162.32953708976856 23.921730175148696,159.00198757907492 23.796601441688836,155.78350964328274 23.754891864024103,153.4923727347923 23.46292481990531,150.11019237633445 23.546343975467607,149.3464699612814 23.880020597483963,149.4555732597364 25.339855818776414,149.51012489700224 26.21575695159845,148.03722787552397 26.174047373700887,146.78253320520162 26.174047373700887,146.12790821341332 26.048918640706688,143.8912641047791 25.96549948514439,141.49094810095266 25.96549948514439,139.09061655797996 25.96549948514439,136.9630369717779 26.632852729177102,136.41750177793438 27.175077239982784,135.92651941720396 29.010298661189154,135.92651941720396 30.345005149254575,135.10821403804584 32.05509783746675,133.5807058311475 34.265705458354205,133.03516566063627 36.55973223480396,132.9260575301596 39.896498455200344,132.38051639636979 41.064366632374,132.16229971821303 43.65036045317538,131.50764891278232 46.90370751800947,130.68933378066868 47.57106076204218,130.41656166844768 50.57415036042221,129.65279868699145 53.660659114364535,128.8344794609584 54.87023686920293,128.50715126481373 56.99742533476092,128.0161584286543 59.91709577757865,127.41605519037694 63.212152420310304,126.81595098078833 64.88053553062491,126.54317601880757 66.79917610692792,126.05218058195896 68.88465499482118,125.83396017894847 72.1380020598881,125.72484992927639 75.6833161690738,125.50662933359854 78.26930998964235,125.39751898765098 80.39649845520034,125.23385340851382 81.02214212156832,125.34296380268643 82.89907312043943,125.23385340851382 86.4026776519604,125.07018775708275 89.65602471679449,125.01563252389315 91.86663233791478,124.8519667761866 94.0355303811375,124.8519667761866 97.33058702386916,124.79741151092458 100.75077239959501,124.63374566676794 103.9207003088668,124.47007975052111 107.09062821837142,124.41552442891407 110.76107106078416,124.19730306277052 113.80587023682892,124.1427477010584 115.89134912448935,124.0336369536526 119.52008238923736,123.86997077250271 122.69001029874198,123.76085994479945 125.81822863034904,123.59719364307239 128.7378990733996,123.48808273527538 130.5314109167084,123.37897179523134 131.94953656033613,123.32441631311667 135.07775489171036,123.26986082308576 138.87332646758296,123.10619430470979 141.91812564386055,122.99708325229585 145.00463439757004,122.66974990235758 147.09011328523047,122.7788610511343 150.1766220391728,122.61519431584748 152.3038105047308,122.56063872142113 153.09629248199053,122.50608311890392 154.80638516996987,122.45152750847046 156.6833161690738,122.39697189000435 157.89289392367937,122.28786062888685 161.14624098874629,122.28786062888685 163.44026776542887,122.23330498632276 165.2754891864024,122.1241936768638 168.3619979401119,121.96052665277966 170.44747682800516,121.85141526311054 171.4067971163895,121.96052665277966 173.24201853759587,122.88797216775129 175.07723995880224,124.8519667761866 175.70288362517022,126.21584579980117 176.11997940274887,129.5982441281376 176.70391349121928,132.8169493676105 177.0792996911332,135.98107304505538 177.2461380022578,137.2358042676933 177.66323377960362,140.2907842718414 178.122039134847,143.45484416902764 178.53913491265848,144.70955009991303 178.45571575686336,145.3096253486292 178.83110195677727,148.30998702463694 179.08135942323133,150.4920529939991 179.37332646758296,152.0194915321772 179.54016477847472,152.78320844171685 179.91555097838864,156.00171241999487 180.249227600405,158.02008201758144 180.3326467559673,159.00198757907492 180.41606591152959,160.583941070101 179.37332646758296,163.52962958655553 176.53707518032752,165.54795820842264 173.28372811549343,165.82070447682054 170.0303810504265,166.0389013470849 168.6956745623611,166.14799973421032 171.53192584961653,166.0389013470849 174.15962924808264,166.14799973421032 175.07723995880224,165.92980292791617 176.9958805355709,165.71160599356517 179.66529351193458,163.36598083848367 180.29093717830256,162.384086832928 180.62461380008608,160.20209084526869 180.29093717830256,156.71087055755197 179.7904222451616,154.52884118512156 180.74974253354594,154.25608661069418 180.91658084467053,153.54692377819447 180.70803295564838,154.31063754155184 179.7070030895993,153.81967887407518 179.49845520104282,151.85583770394442 179.08135942323133,148.7464012459095 178.6642636458855,146.50977293247706 178.3722966015339,145.14596855896525 178.2888774459716,143.34573910478503 177.74665293493308,140.1271252669394 177.66323377960362,138.70874419793836 177.49639546871185,137.45401795991347 177.4546858908143,136.74482299058582 176.87075180234388,133.5807058311475 176.45365602476522,130.19834383425768 176.07826982508413,128.34348705824232 175.82801235839725,126.16129073512275 174.5767250256613,123.76085994479945 172.4912461382337,122.1241936768638 170.40576725034043,121.57863664871547 167.61122554074973,121.79685955637251 165.06694129761308,121.79685955637251 161.31307929963805,122.06963801020174 158.60195674560964,122.01508233556524 156.55818743561395,122.06963801020174 155.72399588045664,122.1787493355805 154.01390319271013,122.23330498632276 151.6781668383628,122.28786062888685 148.34140061796643,122.45152750847046 146.13079299707897,122.56063872142113 142.7106076211203,122.56063872142113 140.62512873322703,122.7788610511343 139.66580844507553,122.83341661337181 137.16323377983645,122.7788610511343 133.45108135952614,123.05163878246094 131.90782698243856,123.21530532493489 129.90576725034043,123.26986082308576 126.9026776519604,123.43352726919693 124.44181256438605,123.54263819317566 122.64830072107725,123.54263819317566 119.89546858915128,123.65174908502377 116.60041194665246,123.81541536274017 113.47219361481257,123.92452617417439 112.67971163755283,123.76085994479945 109.4680741506163,124.08819233143004 107.38259526272304,124.19730306277052 104.37950566411018,124.41552442891407 102.21060762088746,124.47007975052111 100.54222451103851,124.41552442891407 99.41606591129676,124.41552442891407 96.78836251283064,124.47007975052111 95.87075180234388,124.63374566676794 93.86869207001291,124.57919036943349 91.90834191557951,124.68830095609883 91.15756951621734,124.74285623757169 87.82080329558812,124.79741151092458 85.4850669412408,124.9610772827291 82.85736354277469,125.01563252389315 82.10659114317968,125.07018775708275 81.02214212156832,125.23385340851382 77.7270854790695,125.28840860968921 74.43202883610502,125.45207416478661 71.76261585997418,125.45207416478661 70.88671472715214,125.39751898765098 67.84191555110738,125.72484992927639 65.0890834191814,126.3795109456114 64.00463439757004,126.54317601880757 62.2945417095907,126.65228602776187 61.04325437708758,126.97961586146266 58.95777548942715,127.41605519037694 56.49691040161997,127.85249400543398 53.03501544799656,128.7253700941801 51.24150360445492,129.21636199127533 48.73892893921584,129.7619077806885 46.52832131832838,130.36200722205103 44.234294541645795,131.0166600503435 42.31565396510996,131.6713117225445 39.47940267762169,132.32596223891596 37.936148300766945,132.4896246874705 34.64109165803529,132.87150345294503 31.804840370779857,133.30793584615458 30.303295571589842,134.78089138056384 29.135427394416183,135.92651941720396 27.091658084420487,136.47205533346278 26.174047373700887,136.85392999721807 26.09062821837142,138.59963773697382 26.09062821837142,140.45444320465322 26.09062821837142,142.3092393935367 25.631822863128036,142.69110804531374 25.54840370756574,144.9277593936422 25.590113285230473,147.9281241595454 25.67353244079277,149.23736663063755 24.797631307970732,148.96460816374747 23.796601441688836,149.5646765261481 23.671472708461806,151.85583770394442 23.8383110195864,155.1289005424478 23.796601441688836,157.63822915242054 23.96343975304626,160.03844062873395 23.96343975304626,162.6568354286428 24.08856848627329,165.54795820842264 24.046858908375725,167.1298837727809 24.005149330710992,170.23916607620777 24.38053553039208,173.29387417828548 24.50566426361911,176.1849140257691 24.547373841516674,177.33041414577747 21.711122554261237,177.93043660602416 19.9176107107196,178.36681596716517 19.291967044351622,178.31226857512956 19.0,177.65769924447522 19.417095777578652,177.16677148806048 20.29299691063352,177.05767634295626" stroke="#4DD2FF" stroke-linecap="round" stroke-linejoin="round" stroke-width="0.5"><title>2024-06-15 10.5km</title><desc>9223370318393053407</desc></polyline></svg>