<?xml version="1.0" encoding="utf-8" ?>
<svg baseProfile="full" height="200mm" version="1.1" viewBox="0,0,200,200" width="200mm" xmlns="http://www.w3.org/2000/svg" xmlns:ev="http://www.w3.org/2001/xml-events" xmlns:xlink="http://www.w3.org/1999/xlink"><defs /><rect fill="#1a1a1a" height="200" width="200" x="0" y="0" /><text alignment-baseline="middle" fill="#e1ed5e" style="dominant-baseline: central; font-size:9.0px; font-family:Arial;" text-anchor="middle" x="100.0" y="100.0">2024</text><line stroke="#e1ed5e" stroke-width="0.3" x1="100.0" x2="100.0" y1="15.0" y2="10.0" /><path d="M 100.0 14.0 a86.0,86.0 0 0,1 42.35913384403234,11.155469271406648" fill="none" id="id13" stroke="none" /><text fill="#e1ed5e" style="font-size:6.75px; font-family:Arial;" text-anchor="middle"><textPath startOffset="22.145653131862478" xlink:href="#id13">January</textPath></text><line stroke="#e1ed5e" stroke-width="0.3" x1="143.13028292997686" x2="145.6673583964461" y1="26.7553504044142" y2="22.446841604673864" /><path d="M 143.63769802327073 25.89364864446614 a86.0,86.0 0 0,1 29.32050498858742,28.57503671076993" fill="none" id="id14" stroke="none" /><text fill="#e1ed5e" style="font-size:6.75px; font-family:Arial;" text-anchor="middle"><textPath startOffset="20.669276256404974" xlink:href="#id14">February</textPath></text><line stroke="#e1ed5e" stroke-width="0.3" x1="172.87174338648825" x2="177.1583165268699" y1="56.24261187166439" y2="53.66864786411523" /><path d="M 173.72905801456457 55.72781907015455 a86.0,86.0 0 0,1 12.242430191666344,42.057860355516425" fill="none" id="id15" stroke="none" /><text fill="#e1ed5e" style="font-size:6.75px; font-family:Arial;" text-anchor="middle"><textPath startOffset="22.145653131862474" xlink:href="#id15">March</textPath></text><line stroke="#e1ed5e" stroke-width="0.3" x1="184.99686870605535" x2="189.99668451229388" y1="99.2704041080226" y2="99.22748670261217" /><path d="M 185.99683186730306 99.26182062694052 a86.0,86.0 0 0,1 -10.086455211305974,41.156179273409016" fill="none" id="id16" stroke="none" /><text fill="#e1ed5e" style="font-size:6.75px; font-family:Arial;" text-anchor="middle"><textPath startOffset="21.40746469413373" xlink:href="#id16">April</textPath></text><line stroke="#e1ed5e" stroke-width="0.3" x1="174.33088141563837" x2="178.70328620479359" y1="141.23008692659167" y2="143.65538615756765" /><path d="M 175.20536237346943 141.71514677278685 a86.0,86.0 0 0,1 -30.301960400862466,31.631185727798858" fill="none" id="id17" stroke="none" /><text fill="#e1ed5e" style="font-size:6.75px; font-family:Arial;" text-anchor="middle"><textPath startOffset="22.145653131862474" xlink:href="#id17">May</textPath></text><line stroke="#e1ed5e" stroke-width="0.3" x1="143.1302829299769" x2="145.66735839644613" y1="173.24464959558577" y2="177.55315839532614" /><path d="M 143.63769802327073 174.10635135553383 a86.0,86.0 0 0,1 -40.68552437913181,11.842963189579606" fill="none" id="id18" stroke="none" /><text fill="#e1ed5e" style="font-size:6.75px; font-family:Arial;" text-anchor="middle"><textPath startOffset="21.407464694133747" xlink:href="#id18">June</textPath></text><path d="M 106.0420521117495 120.11202640906438 l 18.126156335248506 60.33607922719317 a84.0,84.0 0 0,0 -1.3845599504735728,0.4030252227899269 l -17.08773637239333 -60.63834814428561" fill="red" stroke="none" /><path d="M 103.58742460773223 120.69131181640829 l 6.308271560595703 36.384434003583884 a57.9272437076391,57.9272437076391 0 0,0 -0.9812392272825995,0.16146254144402844 l -5.6827548302600315 -36.48736254352358" fill="red" stroke="none" /><line stroke="#e1ed5e" stroke-width="0.3" x1="101.45913802915013" x2="101.54496967792366" y1="184.9874750549273" y2="189.98673829345242" /><path d="M 101.47630435890484 185.9873277026323 a86.0,86.0 0 0,1 -42.54439059252881,-10.42667462771756" fill="none" id="id19" stroke="none" /><text fill="#e1ed5e" style="font-size:6.75px; font-family:Arial;" text-anchor="middle"><textPath startOffset="22.145653131862474" xlink:href="#id19">July</textPath></text><line stroke="#e1ed5e" stroke-width="0.3" x1="58.13341422392154" x2="55.67067388415222" y1="173.97424548756322" y2="178.32567169271397" /><path d="M 57.64086615596768 174.84453072859336 a86.0,86.0 0 0,1 -31.369924170532247,-30.572349798747897" fill="none" id="id20" stroke="none" /><text fill="#e1ed5e" style="font-size:6.75px; font-family:Arial;" text-anchor="middle"><textPath startOffset="22.145653131862474" xlink:href="#id20">August</textPath></text><line stroke="#e1ed5e" stroke-width="0.3" x1="26.387840678322732" x2="22.057713659400548" y1="142.50000000000003" y2="145.00000000000006" /><path d="M 25.521815274538298 143.00000000000003 a86.0,86.0 0 0,1 -11.493303480769221,-40.785679425670985" fill="none" id="id21" stroke="none" /><text fill="#e1ed5e" style="font-size:6.75px; font-family:Arial;" text-anchor="middle"><textPath startOffset="21.40746469413373" xlink:href="#id21">September</textPath></text><path d="M 79.13060592940153 102.33845913500099 l -17.944212904957975 2.01068648404693 a39.05651231316805,39.05651231316805 0 0,0 -0.06893959378378522,-0.6669280329001461 l 17.97608489122343 -1.7023539288638525" fill="red" stroke="none" /><path d="M 79.0935383218832 101.97986365728391 l -9.059640821693087 0.8579574050873832 a30.100174873431392,30.100174873431392 0 0,0 -0.04429939816677394,-0.5148261564213573 l 9.073033842557601 -0.7023102012903638" fill="red" stroke="none" /><path d="M 79.06263194458094 101.62068470465958 l -17.995779668736464 1.3929871596251686 a39.04961215961687,39.04961215961687 0 0,0 -0.045996796327113836,-0.668783323687082 l 18.017040426228643 -1.0838604117837434" fill="red" stroke="none" /><path d="M 79.03789590574601 101.26102812881392 l -18.776847011188487 1.1295684891687345 a39.81079234517517,39.81079234517517 0 0,0 -0.035182144209566425,-0.6825241986802282 l 18.793470744854623 -0.8070724971117756" fill="red" stroke="none" /><line stroke="#e1ed5e" stroke-width="0.3" x1="15.003131293944662" x2="10.003315487706104" y1="100.72959589197737" y2="100.7725132973878" /><path d="M 14.003168132696942 100.73817937305945 a86.0,86.0 0 0,1 10.791469493833604,-42.45332614584628" fill="none" id="id22" stroke="none" /><text fill="#e1ed5e" style="font-size:6.75px; font-family:Arial;" text-anchor="middle"><textPath startOffset="22.145653131862435" xlink:href="#id22">October</textPath></text><path d="M 79.0935383218832 98.0201363427161 l -9.058053761794657 -0.8578071088649386 a30.098580712813487,30.098580712813487 0 0,0 0.05312773222483505,-0.5139626156817934 l 9.041993637088158 1.0131742468296447" fill="red" stroke="none" /><path d="M 79.13060592940154 97.66154086499901 l -17.927575226083626 -2.0088221974261913 a39.03977051150484,39.03977051150484 0 0,0 0.0803436873527886,-0.665360986548836 l 17.89044945247117 2.316276860898464" fill="red" stroke="none" /><path d="M 79.17382384314186 97.30363454192245 l -17.908916175750477 -2.31866774794365 a39.05839136566187,39.05839136566187 0 0,0 0.09179741849657791,-0.6642003914083526 l 17.86647424069869 2.6257564475520696" fill="red" stroke="none" /><path d="M 79.22317932658666 96.9465228501225 l -17.84130706057135 -2.6220577387527957 a39.032953846082634,39.032953846082634 0 0,0 0.10311857318173982,-0.6620952120999475 l 17.79366699525134 2.927941132784193" fill="red" stroke="none" /><path d="M 79.2786578344484 96.59031103205396 l -18.10704177365643 -2.9795068333176618 a39.35054284654069,39.35054284654069 0 0,0 0.11540049347542199,-0.6655993798784755 l 18.053226462688777 3.2898992461167302" fill="red" stroke="none" /><path d="M 79.34024301695615 96.23510406497455 l -17.746281119069042 -3.233963579621845 a39.03854245750878,39.03854245750878 0 0,0 0.12580394819047458,-0.6582594166210431 l 17.68815087859641 3.5381255612762024" fill="red" stroke="none" /><line stroke="#e1ed5e" stroke-width="0.3" x1="26.387840678322718" x2="22.05771365940052" y1="57.49999999999999" y2="54.99999999999999" /><path d="M 25.521815274538284 56.99999999999999 a86.0,86.0 0 0,1 29.574782752854787,-30.34633250058573" fill="none" id="id23" stroke="none" /><text fill="#e1ed5e" style="font-size:6.75px; font-family:Arial;" text-anchor="middle"><textPath startOffset="21.40746469413373" xlink:href="#id23">November</textPath></text><line stroke="#e1ed5e" stroke-width="0.3" x1="56.869717070023135" x2="54.33264160355391" y1="26.7553504044142" y2="22.446841604673864" /><path d="M 56.362301976729285 25.89364864446614 a86.0,86.0 0 0,1 42.16139366436587,-11.88097634709845" fill="none" id="id24" stroke="none" /><text fill="#e1ed5e" style="font-size:6.75px; font-family:Arial;" text-anchor="middle"><textPath startOffset="22.145653131862474" xlink:href="#id24">December</textPath></text></svg>