<svg xmlns="http://www.w3.org/2000/svg" xmlns:ev="http://www.w3.org/2001/xml-events" xmlns:xlink="http://www.w3.org/1999/xlink" width="200mm" height="300mm" baseProfile="full" version="1.1" viewBox="0 0 200 300"><rect width="200" height="300" x="0" y="0" fill="#222"/><text style="font-size:6px;font-family:Arial" x="11" y="19" fill="#555">Running for 4924 Days</text><text style="font-size:6px;font-family:Arial" x="11" y="39" fill="#555">Races</text><text style="font-size:8px;font-family:Arial" x="11" y="59" fill="#555">1</text><text style="font-size:10px;font-family:Arial;font-weight:700" x="23" y="59" fill="#FFF">10K</text><text style="font-size:6px;font-family:Arial" x="49" y="59" fill="#555">17x</text><text style="font-size:6px;font-family:Arial" x="11" y="97" fill="#555">Stats</text><text style="font-size:5px;font-family:Arial" x="11" y="103" fill="#555">Distance</text><text style="font-size:10px;font-family:Arial;font-weight:700" x="11" y="114" fill="#FFF">1241</text><text style="font-size:6px;font-family:Arial" x="35" y="114" fill="#555">km</text><text style="font-size:5px;font-family:Arial" x="53" y="103" fill="#555">Runs</text><text style="font-size:10px;font-family:Arial;font-weight:700" x="53" y="114" fill="#FFF">332</text><text style="font-size:5px;font-family:Arial" x="11" y="131" fill="#555">Avg Pace</text><text style="font-size:10px;font-family:Arial;font-weight:700" x="11" y="142" fill="#FFF">5&apos;39&quot;</text><text style="font-size:5px;font-family:Arial" x="53" y="131" fill="#555">Streak</text><text style="font-size:10px;font-family:Arial;font-weight:700" x="53" y="142" fill="#FFF">84</text><text style="font-size:6px;font-family:Arial" x="65" y="142" fill="#555">d</text><text style="font-size:5px;font-family:Arial" x="11" y="159" fill="#555">Time</text><text style="font-size:10px;font-family:Arial;font-weight:700" x="11" y="170" fill="#FFF">117</text><text style="font-size:6px;font-family:Arial" x="29" y="170" fill="#555">h</text><text style="font-size:5px;font-family:Arial" x="53" y="159" fill="#555">Longest</text><text style="font-size:10px;font-family:Arial;font-weight:700" x="53" y="170" fill="#FFF">19.2</text><text style="font-size:5px;font-family:Arial" x="11" y="252.065" fill="#555">Runner</text><text style="font-size:8px;font-family:Arial;font-weight:700" x="11" y="262.065" fill="#FFF">yihong0618</text><text style="font-size:7px;font-family:Arial" x="11" y="285.581" fill="#555">running_page/2021</text><circle cx="85.417" cy="17.419" r="3.313" fill="#5094ab"><title>2021-01-01: 5 km</title></circle><circle cx="85.417" cy="26.258" r="3.313" fill="#509ab2"><title>2021-01-02: 5 km</title></circle><circle cx="85.417" cy="35.097" r="3.313" fill="#FF0"><title>2021-01-03: 10 km</title></circle><circle cx="85.417" cy="43.935" r="3.313" fill="#527480"><title>2021-01-04: 2 km</title></circle><circle cx="85.417" cy="52.774" r="3.313" fill="#51899c"><title>2021-01-05: 4 km</title></circle><circle cx="85.417" cy="61.613" r="3.313" fill="#527b89"><title>2021-01-06: 3 km</title></circle><circle cx="85.417" cy="70.452" r="3.313" fill="#527b89"><title>2021-01-07: 3 km</title></circle><circle cx="85.417" cy="79.29" r="3.313" fill="#536f79"><title>2021-01-08: 2 km</title></circle><circle cx="85.417" cy="88.129" r="3.313" fill="#536970"><title>2021-01-09: 1 km</title></circle><circle cx="85.417" cy="96.968" r="3.313" fill="#FF0"><title>2021-01-10: 11 km</title></circle><circle cx="85.417" cy="105.806" r="3.313" fill="#53686f"><title>2021-01-11: 1 km</title></circle><circle cx="85.417" cy="114.645" r="3.313" fill="#51889a"><title>2021-01-12: 4 km</title></circle><circle cx="85.417" cy="123.484" r="3.313" fill="#509ab3"><title>2021-01-13: 5 km</title></circle><circle cx="85.417" cy="132.323" r="3.313" fill="#536e77"><title>2021-01-14: 2 km</title></circle><circle cx="85.417" cy="141.161" r="3.313" fill="#536970"><title>2021-01-15: 1 km</title></circle><circle cx="85.417" cy="150" r="3.313" fill="#FF0"><title>2021-01-16: 11 km</title></circle><circle cx="85.417" cy="158.839" r="3.313" fill="#527f8e"><title>2021-01-17: 3 km</title></circle><circle cx="85.417" cy="167.677" r="3.313" fill="#536e77"><title>2021-01-18: 2 km</title></circle><circle cx="85.417" cy="176.516" r="3.313" fill="#509eb8"><title>2021-01-19: 5 km</title></circle><circle cx="85.417" cy="185.355" r="3.313" fill="#527c8b"><title>2021-01-20: 3 km</title></circle><circle cx="85.417" cy="194.194" r="3.313" fill="#5094ab"><title>2021-01-21: 5 km</title></circle><circle cx="85.417" cy="203.032" r="3.313" fill="#FF0"><title>2021-01-22: 10 km</title></circle><circle cx="85.417" cy="211.871" r="3.313" fill="#5095ac"><title>2021-01-23: 5 km</title></circle><circle cx="85.417" cy="220.71" r="3.313" fill="#FF0"><title>2021-01-24: 10 km</title></circle><circle cx="85.417" cy="229.548" r="3.313" fill="#546267"><title>2021-01-25: 1 km</title></circle><circle cx="85.417" cy="238.387" r="3.313" fill="#51889a"><title>2021-01-26: 4 km</title></circle><circle cx="85.417" cy="247.226" r="3.313" fill="#53686f"><title>2021-01-27: 1 km</title></circle><circle cx="85.417" cy="256.065" r="3.313" fill="#518ea2"><title>2021-01-28: 4 km</title></circle><circle cx="85.417" cy="264.903" r="3.313" fill="#FF0"><title>2021-01-29: 10 km</title></circle><circle cx="85.417" cy="273.742" r="3.313" fill="#527783"><title>2021-01-30: 2 km</title></circle><circle cx="85.417" cy="282.581" r="3.313" fill="#527b88"><title>2021-01-31: 3 km</title></circle><circle cx="94.25" cy="17.419" r="3.313" fill="#51879a"><title>2021-02-01: 4 km</title></circle><circle cx="94.25" cy="26.258" r="3.313" fill="#536870"><title>2021-02-02: 1 km</title></circle><circle cx="94.25" cy="35.097" r="3.313" fill="#5094ab"><title>2021-02-03: 5 km</title></circle><circle cx="94.25" cy="43.935" r="3.313" fill="#527b89"><title>2021-02-04: 3 km</title></circle><circle cx="94.25" cy="52.774" r="3.313" fill="#546166"><title>2021-02-05: 1 km</title></circle><circle cx="94.25" cy="61.613" r="3.313" fill="#536971"><title>2021-02-06: 1 km</title></circle><circle cx="94.25" cy="70.452" r="3.313" fill="#4fa8c5"><title>2021-02-07: 6 km</title></circle><circle cx="94.25" cy="79.29" r="3.313" fill="#FF0"><title>2021-02-08: 12 km</title></circle><circle cx="94.25" cy="88.129" r="3.313" fill="#527f8e"><title>2021-02-09: 3 km</title></circle><circle cx="94.25" cy="96.968" r="3.313" fill="#546369"><title>2021-02-10: 1 km</title></circle><circle cx="94.25" cy="105.806" r="3.313" fill="#536a71"><title>2021-02-11: 1 km</title></circle><circle cx="94.25" cy="114.645" r="3.313" fill="#5094ab"><title>2021-02-12: 5 km</title></circle><circle cx="94.25" cy="123.484" r="3.313" fill="#FF0"><title>2021-02-13: 19 km</title></circle><circle cx="94.25" cy="132.323" r="3.313" fill="#555"><title>2021-02-14</title></circle><circle cx="94.25" cy="141.161" r="3.313" fill="#51899c"><title>2021-02-15: 4 km</title></circle><circle cx="94.25" cy="150" r="3.313" fill="#536e77"><title>2021-02-16: 2 km</title></circle><circle cx="94.25" cy="158.839" r="3.313" fill="#5096ad"><title>2021-02-17: 5 km</title></circle><circle cx="94.25" cy="167.677" r="3.313" fill="#51889b"><title>2021-02-18: 4 km</title></circle><circle cx="94.25" cy="176.516" r="3.313" fill="#5096ad"><title>2021-02-19: 5 km</title></circle><circle cx="94.25" cy="185.355" r="3.313" fill="#527b8a"><title>2021-02-20: 3 km</title></circle><circle cx="94.25" cy="194.194" r="3.313" fill="#5094aa"><title>2021-02-21: 5 km</title></circle><circle cx="94.25" cy="203.032" r="3.313" fill="#50a2be"><title>2021-02-22: 6 km</title></circle><circle cx="94.25" cy="211.871" r="3.313" fill="#527b89"><title>2021-02-23: 3 km</title></circle><circle cx="94.25" cy="220.71" r="3.313" fill="#546267"><title>2021-02-24: 1 km</title></circle><circle cx="94.25" cy="229.548" r="3.313" fill="#4fadcd"><title>2021-02-25: 7 km</title></circle><circle cx="94.25" cy="238.387" r="3.313" fill="#536e77"><title>2021-02-26: 2 km</title></circle><circle cx="94.25" cy="247.226" r="3.313" fill="#4eb3d6"><title>2021-02-27: 7 km</title></circle><circle cx="94.25" cy="256.065" r="3.313" fill="#536971"><title>2021-02-28: 1 km</title></circle><circle cx="103.083" cy="17.419" r="3.313" fill="#53727c"><title>2021-03-01: 2 km</title></circle><circle cx="103.083" cy="26.258" r="3.313" fill="#5094ab"><title>2021-03-02: 5 km</title></circle><circle cx="103.083" cy="35.097" r="3.313" fill="#50a0bc"><title>2021-03-03: 6 km</title></circle><circle cx="103.083" cy="43.935" r="3.313" fill="#527480"><title>2021-03-04: 2 km</title></circle><circle cx="103.083" cy="52.774" r="3.313" fill="#50a1bc"><title>2021-03-05: 6 km</title></circle><circle cx="103.083" cy="61.613" r="3.313" fill="#527d8c"><title>2021-03-06: 3 km</title></circle><circle cx="103.083" cy="70.452" r="3.313" fill="#FF0"><title>2021-03-07: 10 km</title></circle><circle cx="103.083" cy="79.29" r="3.313" fill="#527c8a"><title>2021-03-08: 3 km</title></circle><circle cx="103.083" cy="88.129" r="3.313" fill="#518ca1"><title>2021-03-09: 4 km</title></circle><circle cx="103.083" cy="96.968" r="3.313" fill="#50a1bd"><title>2021-03-10: 6 km</title></circle><circle cx="103.083" cy="105.806" r="3.313" fill="#527581"><title>2021-03-11: 2 km</title></circle><circle cx="103.083" cy="114.645" r="3.313" fill="#5093aa"><title>2021-03-12: 5 km</title></circle><circle cx="103.083" cy="123.484" r="3.313" fill="#5192a8"><title>2021-03-13: 4 km</title></circle><circle cx="103.083" cy="132.323" r="3.313" fill="#51889b"><title>2021-03-14: 4 km</title></circle><circle cx="103.083" cy="141.161" r="3.313" fill="#50a2be"><title>2021-03-15: 6 km</title></circle><circle cx="103.083" cy="150" r="3.313" fill="#527e8d"><title>2021-03-16: 3 km</title></circle><circle cx="103.083" cy="158.839" r="3.313" fill="#518a9e"><title>2021-03-17: 4 km</title></circle><circle cx="103.083" cy="167.677" r="3.313" fill="#527c8a"><title>2021-03-18: 3 km</title></circle><circle cx="103.083" cy="176.516" r="3.313" fill="#5096ad"><title>2021-03-19: 5 km</title></circle><circle cx="103.083" cy="185.355" r="3.313" fill="#536870"><title>2021-03-20: 1 km</title></circle><circle cx="103.083" cy="194.194" r="3.313" fill="#5094aa"><title>2021-03-21: 5 km</title></circle><circle cx="103.083" cy="203.032" r="3.313" fill="#527b88"><title>2021-03-22: 3 km</title></circle><circle cx="103.083" cy="211.871" r="3.313" fill="#527683"><title>2021-03-23: 2 km</title></circle><circle cx="103.083" cy="220.71" r="3.313" fill="#4fa5c2"><title>2021-03-24: 6 km</title></circle><circle cx="103.083" cy="229.548" r="3.313" fill="#536f79"><title>2021-03-25: 2 km</title></circle><circle cx="103.083" cy="238.387" r="3.313" fill="#51889a"><title>2021-03-26: 4 km</title></circle><circle cx="103.083" cy="247.226" r="3.313" fill="#527b89"><title>2021-03-27: 3 km</title></circle><circle cx="103.083" cy="256.065" r="3.313" fill="#4faece"><title>2021-03-28: 7 km</title></circle><circle cx="103.083" cy="264.903" r="3.313" fill="#546267"><title>2021-03-29: 1 km</title></circle><circle cx="103.083" cy="273.742" r="3.313" fill="#518ea2"><title>2021-03-30: 4 km</title></circle><circle cx="103.083" cy="282.581" r="3.313" fill="#FF0"><title>2021-03-31: 10 km</title></circle><circle cx="111.917" cy="17.419" r="3.313" fill="#518799"><title>2021-04-01: 4 km</title></circle><circle cx="111.917" cy="26.258" r="3.313" fill="#527b89"><title>2021-04-02: 3 km</title></circle><circle cx="111.917" cy="35.097" r="3.313" fill="#53666c"><title>2021-04-03: 1 km</title></circle><circle cx="111.917" cy="43.935" r="3.313" fill="#4fa4c1"><title>2021-04-04: 6 km</title></circle><circle cx="111.917" cy="52.774" r="3.313" fill="#51889a"><title>2021-04-05: 4 km</title></circle><circle cx="111.917" cy="61.613" r="3.313" fill="#527c8a"><title>2021-04-06: 3 km</title></circle><circle cx="111.917" cy="70.452" r="3.313" fill="#5094ab"><title>2021-04-07: 5 km</title></circle><circle cx="111.917" cy="79.29" r="3.313" fill="#FF0"><title>2021-04-08: 10 km</title></circle><circle cx="111.917" cy="88.129" r="3.313" fill="#527c8a"><title>2021-04-09: 3 km</title></circle><circle cx="111.917" cy="96.968" r="3.313" fill="#51879a"><title>2021-04-10: 4 km</title></circle><circle cx="111.917" cy="105.806" r="3.313" fill="#546267"><title>2021-04-11: 1 km</title></circle><circle cx="111.917" cy="114.645" r="3.313" fill="#518a9d"><title>2021-04-12: 4 km</title></circle><circle cx="111.917" cy="123.484" r="3.313" fill="#518da1"><title>2021-04-13: 4 km</title></circle><circle cx="111.917" cy="132.323" r="3.313" fill="#50a1bd"><title>2021-04-14: 6 km</title></circle><circle cx="111.917" cy="141.161" r="3.313" fill="#5095ac"><title>2021-04-15: 5 km</title></circle><circle cx="111.917" cy="150" r="3.313" fill="#5094aa"><title>2021-04-16: 5 km</title></circle><circle cx="111.917" cy="158.839" r="3.313" fill="#509eb9"><title>2021-04-17: 5 km</title></circle><circle cx="111.917" cy="167.677" r="3.313" fill="#FF0"><title>2021-04-18: 17 km</title></circle><circle cx="111.917" cy="176.516" r="3.313" fill="#53737e"><title>2021-04-19: 2 km</title></circle><circle cx="111.917" cy="185.355" r="3.313" fill="#50a0bc"><title>2021-04-20: 6 km</title></circle><circle cx="111.917" cy="194.194" r="3.313" fill="#4eb7da"><title>2021-04-21: 7 km</title></circle><circle cx="111.917" cy="203.032" r="3.313" fill="#50a0bc"><title>2021-04-22: 6 km</title></circle><circle cx="111.917" cy="211.871" r="3.313" fill="#527d8b"><title>2021-04-23: 3 km</title></circle><circle cx="111.917" cy="220.71" r="3.313" fill="#527c8a"><title>2021-04-24: 3 km</title></circle><circle cx="111.917" cy="229.548" r="3.313" fill="#51889a"><title>2021-04-25: 4 km</title></circle><circle cx="111.917" cy="238.387" r="3.313" fill="#51899c"><title>2021-04-26: 4 km</title></circle><circle cx="111.917" cy="247.226" r="3.313" fill="#5093aa"><title>2021-04-27: 5 km</title></circle><circle cx="111.917" cy="256.065" r="3.313" fill="#536971"><title>2021-04-28: 1 km</title></circle><circle cx="111.917" cy="264.903" r="3.313" fill="#5099b2"><title>2021-04-29: 5 km</title></circle><circle cx="111.917" cy="273.742" r="3.313" fill="#FF0"><title>2021-04-30: 10 km</title></circle><circle cx="120.75" cy="17.419" r="3.313" fill="#518799"><title>2021-05-01: 4 km</title></circle><circle cx="120.75" cy="26.258" r="3.313" fill="#509cb6"><title>2021-05-02: 5 km</title></circle><circle cx="120.75" cy="35.097" r="3.313" fill="#4dcaf4"><title>2021-05-03: 9 km</title></circle><circle cx="120.75" cy="43.935" r="3.313" fill="#536f79"><title>2021-05-04: 2 km</title></circle><circle cx="120.75" cy="52.774" r="3.313" fill="#53737e"><title>2021-05-05: 2 km</title></circle><circle cx="120.75" cy="61.613" r="3.313" fill="#4fa3bf"><title>2021-05-06: 6 km</title></circle><circle cx="120.75" cy="70.452" r="3.313" fill="#527e8d"><title>2021-05-07: 3 km</title></circle><circle cx="120.75" cy="79.29" r="3.313" fill="#527a88"><title>2021-05-08: 3 km</title></circle><circle cx="120.75" cy="88.129" r="3.313" fill="#53676e"><title>2021-05-09: 1 km</title></circle><circle cx="120.75" cy="96.968" r="3.313" fill="#555"><title>2021-05-10</title></circle><circle cx="120.75" cy="105.806" r="3.313" fill="#5094ab"><title>2021-05-11: 5 km</title></circle><circle cx="120.75" cy="114.645" r="3.313" fill="#53707a"><title>2021-05-12: 2 km</title></circle><circle cx="120.75" cy="123.484" r="3.313" fill="#5099b1"><title>2021-05-13: 5 km</title></circle><circle cx="120.75" cy="132.323" r="3.313" fill="#527b89"><title>2021-05-14: 3 km</title></circle><circle cx="120.75" cy="141.161" r="3.313" fill="#527581"><title>2021-05-15: 2 km</title></circle><circle cx="120.75" cy="150" r="3.313" fill="#536f79"><title>2021-05-16: 2 km</title></circle><circle cx="120.75" cy="158.839" r="3.313" fill="#51899c"><title>2021-05-17: 4 km</title></circle><circle cx="120.75" cy="167.677" r="3.313" fill="#509cb6"><title>2021-05-18: 5 km</title></circle><circle cx="120.75" cy="176.516" r="3.313" fill="#528293"><title>2021-05-19: 3 km</title></circle><circle cx="120.75" cy="185.355" r="3.313" fill="#546166"><title>2021-05-20: 1 km</title></circle><circle cx="120.75" cy="194.194" r="3.313" fill="#53727c"><title>2021-05-21: 2 km</title></circle><circle cx="120.75" cy="203.032" r="3.313" fill="#4fa5c2"><title>2021-05-22: 6 km</title></circle><circle cx="120.75" cy="211.871" r="3.313" fill="#53737e"><title>2021-05-23: 2 km</title></circle><circle cx="120.75" cy="220.71" r="3.313" fill="#53676e"><title>2021-05-24: 1 km</title></circle><circle cx="120.75" cy="229.548" r="3.313" fill="#546469"><title>2021-05-25: 1 km</title></circle><circle cx="120.75" cy="238.387" r="3.313" fill="#518a9d"><title>2021-05-26: 4 km</title></circle><circle cx="120.75" cy="247.226" r="3.313" fill="#536f78"><title>2021-05-27: 2 km</title></circle><circle cx="120.75" cy="256.065" r="3.313" fill="#4faac9"><title>2021-05-28: 6 km</title></circle><circle cx="120.75" cy="264.903" r="3.313" fill="#FF0"><title>2021-05-29: 10 km</title></circle><circle cx="120.75" cy="273.742" r="3.313" fill="#5095ad"><title>2021-05-30: 5 km</title></circle><circle cx="120.75" cy="282.581" r="3.313" fill="#546267"><title>2021-05-31: 1 km</title></circle><circle cx="129.583" cy="17.419" r="3.313" fill="#527c8a"><title>2021-06-01: 3 km</title></circle><circle cx="129.583" cy="26.258" r="3.313" fill="#518a9d"><title>2021-06-02: 4 km</title></circle><circle cx="129.583" cy="35.097" r="3.313" fill="#51879a"><title>2021-06-03: 4 km</title></circle><circle cx="129.583" cy="43.935" r="3.313" fill="#527e8d"><title>2021-06-04: 3 km</title></circle><circle cx="129.583" cy="52.774" r="3.313" fill="#518b9e"><title>2021-06-05: 4 km</title></circle><circle cx="129.583" cy="61.613" r="3.313" fill="#53676e"><title>2021-06-06: 1 km</title></circle><circle cx="129.583" cy="70.452" r="3.313" fill="#5098b0"><title>2021-06-07: 5 km</title></circle><circle cx="129.583" cy="79.29" r="3.313" fill="#527f8e"><title>2021-06-08: 3 km</title></circle><circle cx="129.583" cy="88.129" r="3.313" fill="#527d8c"><title>2021-06-09: 3 km</title></circle><circle cx="129.583" cy="96.968" r="3.313" fill="#53707a"><title>2021-06-10: 2 km</title></circle><circle cx="129.583" cy="105.806" r="3.313" fill="#555"><title>2021-06-11</title></circle><circle cx="129.583" cy="114.645" r="3.313" fill="#546267"><title>2021-06-12: 1 km</title></circle><circle cx="129.583" cy="123.484" r="3.313" fill="#509cb6"><title>2021-06-13: 5 km</title></circle><circle cx="129.583" cy="132.323" r="3.313" fill="#53707a"><title>2021-06-14: 2 km</title></circle><circle cx="129.583" cy="141.161" r="3.313" fill="#518799"><title>2021-06-15: 4 km</title></circle><circle cx="129.583" cy="150" r="3.313" fill="#518a9e"><title>2021-06-16: 4 km</title></circle><circle cx="129.583" cy="158.839" r="3.313" fill="#51899c"><title>2021-06-17: 4 km</title></circle><circle cx="129.583" cy="167.677" r="3.313" fill="#53686f"><title>2021-06-18: 1 km</title></circle><circle cx="129.583" cy="176.516" r="3.313" fill="#555"><title>2021-06-19</title></circle><circle cx="129.583" cy="185.355" r="3.313" fill="#50a3bf"><title>2021-06-20: 6 km</title></circle><circle cx="129.583" cy="194.194" r="3.313" fill="#546166"><title>2021-06-21: 1 km</title></circle><circle cx="129.583" cy="203.032" r="3.313" fill="#536970"><title>2021-06-22: 1 km</title></circle><circle cx="129.583" cy="211.871" r="3.313" fill="#51899b"><title>2021-06-23: 4 km</title></circle><circle cx="129.583" cy="220.71" r="3.313" fill="#509bb5"><title>2021-06-24: 5 km</title></circle><circle cx="129.583" cy="229.548" r="3.313" fill="#53676e"><title>2021-06-25: 1 km</title></circle><circle cx="129.583" cy="238.387" r="3.313" fill="#527480"><title>2021-06-26: 2 km</title></circle><circle cx="129.583" cy="247.226" r="3.313" fill="#FF0"><title>2021-06-27: 10 km</title></circle><circle cx="129.583" cy="256.065" r="3.313" fill="#555"><title>2021-06-28</title></circle><circle cx="129.583" cy="264.903" r="3.313" fill="#527b89"><title>2021-06-29: 3 km</title></circle><circle cx="129.583" cy="273.742" r="3.313" fill="#546469"><title>2021-06-30: 1 km</title></circle><circle cx="138.417" cy="17.419" r="3.313" fill="#518a9d"><title>2021-07-01: 4 km</title></circle><circle cx="138.417" cy="26.258" r="3.313" fill="#536b72"><title>2021-07-02: 1 km</title></circle><circle cx="138.417" cy="35.097" r="3.313" fill="#5094ab"><title>2021-07-03: 5 km</title></circle><circle cx="138.417" cy="43.935" r="3.313" fill="#527c8b"><title>2021-07-04: 3 km</title></circle><circle cx="138.417" cy="52.774" r="3.313" fill="#546266"><title>2021-07-05: 1 km</title></circle><circle cx="138.417" cy="61.613" r="3.313" fill="#527580"><title>2021-07-06: 2 km</title></circle><circle cx="138.417" cy="70.452" r="3.313" fill="#555"><title>2021-07-07</title></circle><circle cx="138.417" cy="79.29" r="3.313" fill="#53737e"><title>2021-07-08: 2 km</title></circle><circle cx="138.417" cy="88.129" r="3.313" fill="#518ca0"><title>2021-07-09: 4 km</title></circle><circle cx="138.417" cy="96.968" r="3.313" fill="#555"><title>2021-07-10</title></circle><circle cx="138.417" cy="105.806" r="3.313" fill="#5096ad"><title>2021-07-11: 5 km</title></circle><circle cx="138.417" cy="114.645" r="3.313" fill="#546267"><title>2021-07-12: 1 km</title></circle><circle cx="138.417" cy="123.484" r="3.313" fill="#527683"><title>2021-07-13: 2 km</title></circle><circle cx="138.417" cy="132.323" r="3.313" fill="#527b89"><title>2021-07-14: 3 km</title></circle><circle cx="138.417" cy="141.161" r="3.313" fill="#555"><title>2021-07-15</title></circle><circle cx="138.417" cy="150" r="3.313" fill="#527a88"><title>2021-07-16: 3 km</title></circle><circle cx="138.417" cy="158.839" r="3.313" fill="#555"><title>2021-07-17</title></circle><circle cx="138.417" cy="167.677" r="3.313" fill="#5095ac"><title>2021-07-18: 5 km</title></circle><circle cx="138.417" cy="176.516" r="3.313" fill="#555"><title>2021-07-19</title></circle><circle cx="138.417" cy="185.355" r="3.313" fill="#536e78"><title>2021-07-20: 2 km</title></circle><circle cx="138.417" cy="194.194" r="3.313" fill="#53656b"><title>2021-07-21: 1 km</title></circle><circle cx="138.417" cy="203.032" r="3.313" fill="#555"><title>2021-07-22</title></circle><circle cx="138.417" cy="211.871" r="3.313" fill="#555"><title>2021-07-23</title></circle><circle cx="138.417" cy="220.71" r="3.313" fill="#527581"><title>2021-07-24: 2 km</title></circle><circle cx="138.417" cy="229.548" r="3.313" fill="#546267"><title>2021-07-25: 1 km</title></circle><circle cx="138.417" cy="238.387" r="3.313" fill="#536a72"><title>2021-07-26: 1 km</title></circle><circle cx="138.417" cy="247.226" r="3.313" fill="#53676d"><title>2021-07-27: 1 km</title></circle><circle cx="138.417" cy="256.065" r="3.313" fill="#536b73"><title>2021-07-28: 1 km</title></circle><circle cx="138.417" cy="264.903" r="3.313" fill="#555"><title>2021-07-29</title></circle><circle cx="138.417" cy="273.742" r="3.313" fill="#527b89"><title>2021-07-30: 3 km</title></circle><circle cx="138.417" cy="282.581" r="3.313" fill="#536f78"><title>2021-07-31: 2 km</title></circle><circle cx="147.25" cy="17.419" r="3.313" fill="#4fa5c3"><title>2021-08-01: 6 km</title></circle><circle cx="147.25" cy="26.258" r="3.313" fill="#546267"><title>2021-08-02: 1 km</title></circle><circle cx="147.25" cy="35.097" r="3.313" fill="#555"><title>2021-08-03</title></circle><circle cx="147.25" cy="43.935" r="3.313" fill="#53727c"><title>2021-08-04: 2 km</title></circle><circle cx="147.25" cy="52.774" r="3.313" fill="#555"><title>2021-08-05</title></circle><circle cx="147.25" cy="61.613" r="3.313" fill="#555"><title>2021-08-06</title></circle><circle cx="147.25" cy="70.452" r="3.313" fill="#536f79"><title>2021-08-07: 2 km</title></circle><circle cx="147.25" cy="79.29" r="3.313" fill="#527c8a"><title>2021-08-08: 3 km</title></circle><circle cx="147.25" cy="88.129" r="3.313" fill="#555"><title>2021-08-09</title></circle><circle cx="147.25" cy="96.968" r="3.313" fill="#546369"><title>2021-08-10: 1 km</title></circle><circle cx="147.25" cy="105.806" r="3.313" fill="#555"><title>2021-08-11</title></circle><circle cx="147.25" cy="114.645" r="3.313" fill="#536f78"><title>2021-08-12: 2 km</title></circle><circle cx="147.25" cy="123.484" r="3.313" fill="#555"><title>2021-08-13</title></circle><circle cx="147.25" cy="132.323" r="3.313" fill="#527b89"><title>2021-08-14: 3 km</title></circle><circle cx="147.25" cy="141.161" r="3.313" fill="#518597"><title>2021-08-15: 3 km</title></circle><circle cx="147.25" cy="150" r="3.313" fill="#527c8a"><title>2021-08-16: 3 km</title></circle><circle cx="147.25" cy="158.839" r="3.313" fill="#527d8c"><title>2021-08-17: 3 km</title></circle><circle cx="147.25" cy="167.677" r="3.313" fill="#527d8c"><title>2021-08-18: 3 km</title></circle><circle cx="147.25" cy="176.516" r="3.313" fill="#537079"><title>2021-08-19: 2 km</title></circle><circle cx="147.25" cy="185.355" r="3.313" fill="#527c8a"><title>2021-08-20: 3 km</title></circle><circle cx="147.25" cy="194.194" r="3.313" fill="#5097af"><title>2021-08-21: 5 km</title></circle><circle cx="147.25" cy="203.032" r="3.313" fill="#536f78"><title>2021-08-22: 2 km</title></circle><circle cx="147.25" cy="211.871" r="3.313" fill="#528292"><title>2021-08-23: 3 km</title></circle><circle cx="147.25" cy="220.71" r="3.313" fill="#546267"><title>2021-08-24: 1 km</title></circle><circle cx="147.25" cy="229.548" r="3.313" fill="#527d8b"><title>2021-08-25: 3 km</title></circle><circle cx="147.25" cy="238.387" r="3.313" fill="#5097ae"><title>2021-08-26: 5 km</title></circle><circle cx="147.25" cy="247.226" r="3.313" fill="#51889b"><title>2021-08-27: 4 km</title></circle><circle cx="147.25" cy="256.065" r="3.313" fill="#4fa5c2"><title>2021-08-28: 6 km</title></circle><circle cx="147.25" cy="264.903" r="3.313" fill="#527b88"><title>2021-08-29: 3 km</title></circle><circle cx="147.25" cy="273.742" r="3.313" fill="#5094ab"><title>2021-08-30: 5 km</title></circle><circle cx="147.25" cy="282.581" r="3.313" fill="#527b89"><title>2021-08-31: 3 km</title></circle><circle cx="156.083" cy="17.419" r="3.313" fill="#518ca0"><title>2021-09-01: 4 km</title></circle><circle cx="156.083" cy="26.258" r="3.313" fill="#555"><title>2021-09-02</title></circle><circle cx="156.083" cy="35.097" r="3.313" fill="#53676e"><title>2021-09-03: 1 km</title></circle><circle cx="156.083" cy="43.935" r="3.313" fill="#527b89"><title>2021-09-04: 3 km</title></circle><circle cx="156.083" cy="52.774" r="3.313" fill="#FF0"><title>2021-09-05: 11 km</title></circle><circle cx="156.083" cy="61.613" r="3.313" fill="#555"><title>2021-09-06</title></circle><circle cx="156.083" cy="70.452" r="3.313" fill="#536c74"><title>2021-09-07: 1 km</title></circle><circle cx="156.083" cy="79.29" r="3.313" fill="#536e77"><title>2021-09-08: 2 km</title></circle><circle cx="156.083" cy="88.129" r="3.313" fill="#527580"><title>2021-09-09: 2 km</title></circle><circle cx="156.083" cy="96.968" r="3.313" fill="#518a9e"><title>2021-09-10: 4 km</title></circle><circle cx="156.083" cy="105.806" r="3.313" fill="#51889b"><title>2021-09-11: 4 km</title></circle><circle cx="156.083" cy="114.645" r="3.313" fill="#FF0"><title>2021-09-12: 15 km</title></circle><circle cx="156.083" cy="123.484" r="3.313" fill="#555"><title>2021-09-13</title></circle><circle cx="156.083" cy="132.323" r="3.313" fill="#53707a"><title>2021-09-14: 2 km</title></circle><circle cx="156.083" cy="141.161" r="3.313" fill="#536f79"><title>2021-09-15: 2 km</title></circle><circle cx="156.083" cy="150" r="3.313" fill="#527c8a"><title>2021-09-16: 3 km</title></circle><circle cx="156.083" cy="158.839" r="3.313" fill="#5098b0"><title>2021-09-17: 5 km</title></circle><circle cx="156.083" cy="167.677" r="3.313" fill="#53707a"><title>2021-09-18: 2 km</title></circle><circle cx="156.083" cy="176.516" r="3.313" fill="#53707a"><title>2021-09-19: 2 km</title></circle><circle cx="156.083" cy="185.355" r="3.313" fill="#555"><title>2021-09-20</title></circle><circle cx="156.083" cy="194.194" r="3.313" fill="#518ca1"><title>2021-09-21: 4 km</title></circle><circle cx="156.083" cy="203.032" r="3.313" fill="#527c8a"><title>2021-09-22: 3 km</title></circle><circle cx="156.083" cy="211.871" r="3.313" fill="#555"><title>2021-09-23</title></circle><circle cx="156.083" cy="220.71" r="3.313" fill="#555"><title>2021-09-24</title></circle><circle cx="156.083" cy="229.548" r="3.313" fill="#4ebfe5"><title>2021-09-25: 8 km</title></circle><circle cx="156.083" cy="238.387" r="3.313" fill="#555"><title>2021-09-26</title></circle><circle cx="156.083" cy="247.226" r="3.313" fill="#555"><title>2021-09-27</title></circle><circle cx="156.083" cy="256.065" r="3.313" fill="#527d8c"><title>2021-09-28: 3 km</title></circle><circle cx="156.083" cy="264.903" r="3.313" fill="#555"><title>2021-09-29</title></circle><circle cx="156.083" cy="273.742" r="3.313" fill="#FF0"><title>2021-09-30: 10 km</title></circle><circle cx="164.917" cy="17.419" r="3.313" fill="#51879a"><title>2021-10-01: 4 km</title></circle><circle cx="164.917" cy="26.258" r="3.313" fill="#546268"><title>2021-10-02: 1 km</title></circle><circle cx="164.917" cy="35.097" r="3.313" fill="#536e78"><title>2021-10-03: 2 km</title></circle><circle cx="164.917" cy="43.935" r="3.313" fill="#527d8b"><title>2021-10-04: 3 km</title></circle><circle cx="164.917" cy="52.774" r="3.313" fill="#5096ae"><title>2021-10-05: 5 km</title></circle><circle cx="164.917" cy="61.613" r="3.313" fill="#509ab3"><title>2021-10-06: 5 km</title></circle><circle cx="164.917" cy="70.452" r="3.313" fill="#527c8b"><title>2021-10-07: 3 km</title></circle><circle cx="164.917" cy="79.29" r="3.313" fill="#527b89"><title>2021-10-08: 3 km</title></circle><circle cx="164.917" cy="88.129" r="3.313" fill="#51889a"><title>2021-10-09: 4 km</title></circle><circle cx="164.917" cy="96.968" r="3.313" fill="#4fa9c8"><title>2021-10-10: 6 km</title></circle><circle cx="164.917" cy="105.806" r="3.313" fill="#555"><title>2021-10-11</title></circle><circle cx="164.917" cy="114.645" r="3.313" fill="#527b89"><title>2021-10-12: 3 km</title></circle><circle cx="164.917" cy="123.484" r="3.313" fill="#527b89"><title>2021-10-13: 3 km</title></circle><circle cx="164.917" cy="132.323" r="3.313" fill="#527c8a"><title>2021-10-14: 3 km</title></circle><circle cx="164.917" cy="141.161" r="3.313" fill="#555"><title>2021-10-15</title></circle><circle cx="164.917" cy="150" r="3.313" fill="#555"><title>2021-10-16</title></circle><circle cx="164.917" cy="158.839" r="3.313" fill="#4fafd0"><title>2021-10-17: 7 km</title></circle><circle cx="164.917" cy="167.677" r="3.313" fill="#546267"><title>2021-10-18: 1 km</title></circle><circle cx="164.917" cy="176.516" r="3.313" fill="#536e77"><title>2021-10-19: 2 km</title></circle><circle cx="164.917" cy="185.355" r="3.313" fill="#527b89"><title>2021-10-20: 3 km</title></circle><circle cx="164.917" cy="194.194" r="3.313" fill="#555"><title>2021-10-21</title></circle><circle cx="164.917" cy="203.032" r="3.313" fill="#555"><title>2021-10-22</title></circle><circle cx="164.917" cy="211.871" r="3.313" fill="#53686f"><title>2021-10-23: 1 km</title></circle><circle cx="164.917" cy="220.71" r="3.313" fill="#52808f"><title>2021-10-24: 3 km</title></circle><circle cx="164.917" cy="229.548" r="3.313" fill="#555"><title>2021-10-25</title></circle><circle cx="164.917" cy="238.387" r="3.313" fill="#527885"><title>2021-10-26: 2 km</title></circle><circle cx="164.917" cy="247.226" r="3.313" fill="#527d8b"><title>2021-10-27: 3 km</title></circle><circle cx="164.917" cy="256.065" r="3.313" fill="#555"><title>2021-10-28</title></circle><circle cx="164.917" cy="264.903" r="3.313" fill="#527b89"><title>2021-10-29: 3 km</title></circle><circle cx="164.917" cy="273.742" r="3.313" fill="#5190a6"><title>2021-10-30: 4 km</title></circle><circle cx="164.917" cy="282.581" r="3.313" fill="#527c8a"><title>2021-10-31: 3 km</title></circle><circle cx="173.75" cy="17.419" r="3.313" fill="#5098b0"><title>2021-11-01: 5 km</title></circle><circle cx="173.75" cy="26.258" r="3.313" fill="#527b89"><title>2021-11-02: 3 km</title></circle><circle cx="173.75" cy="35.097" r="3.313" fill="#518ca0"><title>2021-11-03: 4 km</title></circle><circle cx="173.75" cy="43.935" r="3.313" fill="#53686f"><title>2021-11-04: 1 km</title></circle><circle cx="173.75" cy="52.774" r="3.313" fill="#555"><title>2021-11-05</title></circle><circle cx="173.75" cy="61.613" r="3.313" fill="#555"><title>2021-11-06</title></circle><circle cx="173.75" cy="70.452" r="3.313" fill="#555"><title>2021-11-07</title></circle><circle cx="173.75" cy="79.29" r="3.313" fill="#536a71"><title>2021-11-08: 1 km</title></circle><circle cx="173.75" cy="88.129" r="3.313" fill="#527c8a"><title>2021-11-09: 3 km</title></circle><circle cx="173.75" cy="96.968" r="3.313" fill="#5094ab"><title>2021-11-10: 5 km</title></circle><circle cx="173.75" cy="105.806" r="3.313" fill="#546266"><title>2021-11-11: 1 km</title></circle><circle cx="173.75" cy="114.645" r="3.313" fill="#536e77"><title>2021-11-12: 2 km</title></circle><circle cx="173.75" cy="123.484" r="3.313" fill="#546267"><title>2021-11-13: 1 km</title></circle><circle cx="173.75" cy="132.323" r="3.313" fill="#5096ae"><title>2021-11-14: 5 km</title></circle><circle cx="173.75" cy="141.161" r="3.313" fill="#555"><title>2021-11-15</title></circle><circle cx="173.75" cy="150" r="3.313" fill="#536e77"><title>2021-11-16: 2 km</title></circle><circle cx="173.75" cy="158.839" r="3.313" fill="#53737e"><title>2021-11-17: 2 km</title></circle><circle cx="173.75" cy="167.677" r="3.313" fill="#546266"><title>2021-11-18: 1 km</title></circle><circle cx="173.75" cy="176.516" r="3.313" fill="#51899c"><title>2021-11-19: 4 km</title></circle><circle cx="173.75" cy="185.355" r="3.313" fill="#53686e"><title>2021-11-20: 1 km</title></circle><circle cx="173.75" cy="194.194" r="3.313" fill="#509db7"><title>2021-11-21: 5 km</title></circle><circle cx="173.75" cy="203.032" r="3.313" fill="#527c8a"><title>2021-11-22: 3 km</title></circle><circle cx="173.75" cy="211.871" r="3.313" fill="#527f8f"><title>2021-11-23: 3 km</title></circle><circle cx="173.75" cy="220.71" r="3.313" fill="#555"><title>2021-11-24</title></circle><circle cx="173.75" cy="229.548" r="3.313" fill="#555"><title>2021-11-25</title></circle><circle cx="173.75" cy="238.387" r="3.313" fill="#527682"><title>2021-11-26: 2 km</title></circle><circle cx="173.75" cy="247.226" r="3.313" fill="#5095ac"><title>2021-11-27: 5 km</title></circle><circle cx="173.75" cy="256.065" r="3.313" fill="#5093aa"><title>2021-11-28: 5 km</title></circle><circle cx="173.75" cy="264.903" r="3.313" fill="#555"><title>2021-11-29</title></circle><circle cx="173.75" cy="273.742" r="3.313" fill="#536970"><title>2021-11-30: 1 km</title></circle><circle cx="182.583" cy="17.419" r="3.313" fill="#528292"><title>2021-12-01: 3 km</title></circle><circle cx="182.583" cy="26.258" r="3.313" fill="#5094ab"><title>2021-12-02: 5 km</title></circle><circle cx="182.583" cy="35.097" r="3.313" fill="#555"><title>2021-12-03</title></circle><circle cx="182.583" cy="43.935" r="3.313" fill="#546369"><title>2021-12-04: 1 km</title></circle><circle cx="182.583" cy="52.774" r="3.313" fill="#527c8a"><title>2021-12-05: 3 km</title></circle><circle cx="182.583" cy="61.613" r="3.313" fill="#536b72"><title>2021-12-06: 1 km</title></circle><circle cx="182.583" cy="70.452" r="3.313" fill="#53727d"><title>2021-12-07: 2 km</title></circle><circle cx="182.583" cy="79.29" r="3.313" fill="#527d8b"><title>2021-12-08: 3 km</title></circle><circle cx="182.583" cy="88.129" r="3.313" fill="#555"><title>2021-12-09</title></circle><circle cx="182.583" cy="96.968" r="3.313" fill="#546368"><title>2021-12-10: 1 km</title></circle><circle cx="182.583" cy="105.806" r="3.313" fill="#5095ac"><title>2021-12-11: 5 km</title></circle><circle cx="182.583" cy="114.645" r="3.313" fill="#536e78"><title>2021-12-12: 2 km</title></circle><circle cx="182.583" cy="123.484" r="3.313" fill="#555"><title>2021-12-13</title></circle><circle cx="182.583" cy="132.323" r="3.313" fill="#536e78"><title>2021-12-14: 2 km</title></circle><circle cx="182.583" cy="141.161" r="3.313" fill="#536e78"><title>2021-12-15: 2 km</title></circle><circle cx="182.583" cy="150" r="3.313" fill="#527580"><title>2021-12-16: 2 km</title></circle><circle cx="182.583" cy="158.839" r="3.313" fill="#555"><title>2021-12-17</title></circle><circle cx="182.583" cy="167.677" r="3.313" fill="#53727d"><title>2021-12-18: 2 km</title></circle><circle cx="182.583" cy="176.516" r="3.313" fill="#51879a"><title>2021-12-19: 4 km</title></circle><circle cx="182.583" cy="185.355" r="3.313" fill="#53676e"><title>2021-12-20: 1 km</title></circle><circle cx="182.583" cy="194.194" r="3.313" fill="#527b89"><title>2021-12-21: 3 km</title></circle><circle cx="182.583" cy="203.032" r="3.313" fill="#536f78"><title>2021-12-22: 2 km</title></circle><circle cx="182.583" cy="211.871" r="3.313" fill="#555"><title>2021-12-23</title></circle><circle cx="182.583" cy="220.71" r="3.313" fill="#546266"><title>2021-12-24: 1 km</title></circle><circle cx="182.583" cy="229.548" r="3.313" fill="#536e77"><title>2021-12-25: 2 km</title></circle><circle cx="182.583" cy="238.387" r="3.313" fill="#527b89"><title>2021-12-26: 3 km</title></circle><circle cx="182.583" cy="247.226" r="3.313" fill="#555"><title>2021-12-27</title></circle><circle cx="182.583" cy="256.065" r="3.313" fill="#555"><title>2021-12-28</title></circle><circle cx="182.583" cy="264.903" r="3.313" fill="#53666c"><title>2021-12-29: 1 km</title></circle><circle cx="182.583" cy="273.742" r="3.313" fill="#5099b1"><title>2021-12-30: 5 km</title></circle><circle cx="182.583" cy="282.581" r="3.313" fill="#527581"><title>2021-12-31: 2 km</title></circle></svg>